<?xml version="1.0" encoding="utf-8"?>
<!-- Generator: Adobe Illustrator 21.1.0, SVG Export Plug-In . SVG Version: 6.00 Build 0)  -->
<svg version="1.1" id="Layer_1" xmlns="http://www.w3.org/2000/svg" xmlns:xlink="http://www.w3.org/1999/xlink" x="0px" y="0px"
	 viewBox="0 0 64 64" style="enable-background:new 0 0 64 64;" xml:space="preserve">
<style type="text/css">
	.st0{opacity:0.08;}
	.st1{fill-rule:evenodd;clip-rule:evenodd;}
	.st2{fill-rule:evenodd;clip-rule:evenodd;fill:url(#SVGID_1_);}
	.st3{fill-rule:evenodd;clip-rule:evenodd;fill:#F4413D;}
	.st4{opacity:0.16;}
	.st5{fill-rule:evenodd;clip-rule:evenodd;fill:url(#SVGID_2_);}
	.st6{fill:#413D3D;}
	.st7{opacity:0.24;}
	.st8{fill:url(#SVGID_3_);}
	.st9{fill:url(#SVGID_4_);}
</style>
<title>calendar</title>
<g>
	<g class="st0">
		<path class="st1" d="M17.86719,60C9.57275,60,4,54.42725,4,46.13281V19.86719C4,11.57275,9.57275,6,17.86719,6h28.26562
			C54.42725,6,60,11.57275,60,19.86719v26.26562C60,54.42725,54.42725,60,46.13281,60H17.86719z"/>
	</g>
	<g>
		<linearGradient id="SVGID_1_" gradientUnits="userSpaceOnUse" x1="32" y1="59" x2="32" y2="5">
			<stop  offset="0" style="stop-color:#ECECEC"/>
			<stop  offset="1" style="stop-color:#FFFFFF"/>
		</linearGradient>
		<path class="st2" d="M17.86719,59C9.57275,59,4,53.42725,4,45.13281V18.86719C4,10.57275,9.57275,5,17.86719,5h28.26562
			C54.42676,5,60,10.57275,60,18.86719v26.26562C60,53.42725,54.42676,59,46.13281,59H17.86719z"/>
	</g>
	<path class="st3" d="M4,19v-0.13281C4,10.57275,9.57275,5,17.86719,5h28.26562C54.42676,5,60,10.57275,60,18.86719V19H4z"/>
	<g class="st4">
		<linearGradient id="SVGID_2_" gradientUnits="userSpaceOnUse" x1="32" y1="59" x2="32" y2="5">
			<stop  offset="0" style="stop-color:#000000"/>
			<stop  offset="0.06" style="stop-color:#000000;stop-opacity:0"/>
		</linearGradient>
		<path class="st5" d="M46.13281,5H17.86719C9.57275,5,4,10.57275,4,18.86719v26.26562C4,53.42725,9.57275,59,17.86719,59h28.26562
			C54.42676,59,60,53.42725,60,45.13281V18.86719C60,10.57275,54.42676,5,46.13281,5z M58,45.13281
			C58,52.3418,53.3418,57,46.13281,57H17.86719C10.6582,57,6,52.3418,6,45.13281V18.86719C6,11.6582,10.6582,7,17.86719,7h28.26562
			C53.3418,7,58,11.6582,58,18.86719V45.13281z"/>
	</g>
	<g>
		<path class="st6" d="M23.57617,35.88574h2.29688c2.58398,0,4.36133-1.58594,4.36133-3.78711
			c0-2.13281-1.61328-3.63672-4.2793-3.63672c-2.44727,0-4.18359,1.47656-4.38867,3.66406h-1.80469
			c0.23242-3.17188,2.7207-5.30469,6.27539-5.30469c3.47266,0,6.08398,2.11914,6.08398,5.04492
			c0,2.47461-1.59961,4.25195-4.11523,4.70312v0.05469c3.02148,0.17773,4.96289,2.05078,4.96289,4.83984
			c0,3.33594-2.98047,5.71484-6.82227,5.71484c-3.97852,0-6.67188-2.26953-6.79492-5.42773h1.80469
			c0.15039,2.20117,2.13281,3.78711,4.97656,3.78711c2.85742,0,4.93555-1.68164,4.93555-4.01953
			c0-2.51562-1.94141-4.04688-5.11328-4.04688h-2.37891V35.88574z"/>
		<path class="st6" d="M40.84375,29.11816h-0.05469c-0.31445,0.19141-3.73242,2.66602-5.29102,3.63672v-1.99609
			c0.58789-0.36914,4.77148-3.32227,5.31836-3.65039h1.83203v19.75586h-1.80469V29.11816z"/>
	</g>
	<circle class="st7" cx="17" cy="12" r="3"/>
	<circle class="st7" cx="47" cy="12" r="3"/>
	<g class="st4">
		<path class="st1" d="M46.13281,5H17.86719C9.57275,5,4,10.57275,4,18.86719v26.26562C4,53.42725,9.57275,59,17.86719,59h28.26562
			C54.42676,59,60,53.42725,60,45.13281V18.86719C60,10.57275,54.42676,5,46.13281,5z M59,45.13281
			C59,52.8291,53.8291,58,46.13281,58H17.86719C10.1709,58,5,52.8291,5,45.13281V18.86719C5,11.1709,10.1709,6,17.86719,6h28.26562
			C53.8291,6,59,11.1709,59,18.86719V45.13281z"/>
	</g>
	<g>
		<linearGradient id="SVGID_3_" gradientUnits="userSpaceOnUse" x1="17" y1="13" x2="17" y2="3">
			<stop  offset="0" style="stop-color:#FFFFFF"/>
			<stop  offset="0.99967" style="stop-color:#DCDCDC"/>
		</linearGradient>
		<path class="st8" d="M17,13c-0.55225,0-1-0.44775-1-1V4c0-0.55225,0.44775-1,1-1s1,0.44775,1,1v8C18,12.55225,17.55225,13,17,13z"
			/>
	</g>
	<g>
		<linearGradient id="SVGID_4_" gradientUnits="userSpaceOnUse" x1="47" y1="13" x2="47" y2="3">
			<stop  offset="0" style="stop-color:#FFFFFF"/>
			<stop  offset="0.99967" style="stop-color:#DCDCDC"/>
		</linearGradient>
		<path class="st9" d="M47,13c-0.55225,0-1-0.44775-1-1V4c0-0.55225,0.44775-1,1-1s1,0.44775,1,1v8C48,12.55225,47.55225,13,47,13z"
			/>
	</g>
</g>
</svg>
